<svg width="103" height="235" viewBox="0 0 103 235" fill="none" xmlns="http://www.w3.org/2000/svg">
<path fill-rule="evenodd" clip-rule="evenodd" d="M33.3465 5.32281C33.3465 5.32281 39.9999 0.000603464 42.9999 0.500546C44.1229 0.687707 46.5548 4.18042 45.4999 7.50055C44.2134 11.5486 40.3774 15.1795 40.3456 15.2095C29.7366 25.9851 21.4607 38.2608 19.1278 53.4244C16.7949 68.588 20.5719 82.8074 28.1258 96.0269C28.4591 96.6378 29.1809 97.027 29.7919 97.4713C30.0695 97.6379 30.403 97.6935 31.1249 97.9156C33.1244 95.4717 35.2351 92.9169 37.4012 90.4175C42.7891 84.2521 48.8998 78.864 56.3983 75.3091C70.451 68.644 83.3369 71.7547 92.8905 84.0855C97.2785 89.751 100.334 96.0273 102 102.97C104.277 112.191 102.278 120.745 96.6678 128.188C90.6135 136.242 82.3373 139.575 72.2284 137.686C63.3968 136.02 55.2314 132.576 47.5663 127.965C44.067 125.855 40.6228 123.8 36.5126 121.3C31.2915 131.409 31.4584 142.241 30.3475 152.628C28.9589 165.18 33.1244 183.788 39.2342 196.063C42.2892 193.675 42.8453 189.787 45.0116 187.176C47.1223 184.677 49.3442 182.177 51.8993 180.177C53.8432 178.678 56.1756 179.511 57.8973 181.233C59.6192 182.899 60.3976 184.955 59.1756 187.232C57.787 189.843 56.009 192.231 54.787 194.953C50.2879 204.728 46.1773 214.616 45.1219 225.503C45.0109 226.613 44.9005 227.724 44.6229 228.779C43.9008 231.501 42.2341 233.445 39.4569 234.001C36.6241 234.556 34.4019 233.112 32.9022 230.723C29.9028 226.058 27.2372 221.169 24.0712 216.615C19.1833 209.616 13.7953 203.006 6.35241 198.452C5.40831 197.896 4.51958 197.174 3.74205 196.397C0.964851 193.842 0.242416 191.009 1.74205 188.565C3.24176 186.065 6.18574 184.844 9.51842 185.843C11.9622 186.565 14.2393 187.899 16.5165 189.121C18.3494 190.065 20.1271 191.176 23.3485 193.064C19.9603 178.4 16.1285 165.236 17.3505 151.461C18.5169 137.963 20.738 124.855 24.6815 111.414C12.7949 98.0274 8.12921 82.6964 6.51842 66.1441C5.85193 59.0345 6.46293 51.9802 8.35143 45.2593C12.6839 29.5403 21.2935 16.2095 33.3465 5.32281ZM84.6698 91.4732C78.2266 82.9749 70.562 81.364 61.286 86.4185C52.2878 91.2509 45.5112 98.4159 40.3456 108.525C48.6773 115.246 56.6203 120.523 65.8407 123.689C68.9511 124.744 72.2287 125.689 75.5057 126.022C82.8929 126.799 87.281 123.911 90.3915 117.079C92.502 112.469 92.78 107.636 90.9471 103.082C89.2808 99.0269 87.2803 94.917 84.6698 91.4732Z" fill="#11412E"/>
</svg>
