<svg width="192" height="192" viewBox="0 0 192 192" fill="none" xmlns="http://www.w3.org/2000/svg">
<path d="M145.516 47.6231C154.204 41.0206 158.117 67.403 157.501 72.2279C156.822 77.5772 147.573 80.7962 143.711 83.2102C148.008 82.6232 152.29 81.8827 156.633 81.8119C161.745 81.7373 160.148 90.4411 159.934 93.5717C159.566 98.9238 148.844 95.1521 145.536 97.7373C149.437 98.1332 153.47 98.3263 157.252 99.4582C159.821 100.231 161.352 102.161 160.931 104.824C160.356 108.462 159.319 112.047 158.222 115.571C155.856 123.194 145.467 115.311 141.341 118.473C145.253 120.049 149.322 121.449 152.467 124.438C160.001 131.608 148.341 151.036 141.931 157.088C138.753 160.085 134.716 160.514 131.159 157.859C127.95 155.466 125.384 152.235 122.556 149.401C119.837 157.492 117.333 165.659 114.553 173.728C113 178.233 105.619 181.763 108.189 175.254C112.992 163.077 117.81 150.907 121.178 138.206C125.82 120.697 128.812 102.843 128.858 84.6613C128.88 75.797 128.436 66.8341 127.089 58.0964C125.534 48.0058 123.228 37.9749 119.232 28.4892C117.192 23.6489 115.079 18.8429 113.003 14.0198C110.673 8.60492 117.98 9.81153 121.272 11.0826C127.921 13.651 134.133 17.1365 138.391 23.1987C140.412 26.0737 142.069 29.2417 143.633 32.4076C145.672 36.5369 144.672 40.5641 142.106 43.9974C138.745 48.4944 134.692 52.4798 130.729 56.4245C132.334 59.0455 143.999 48.7758 145.516 47.6231Z" fill="#A4D792"/>
<path fill-rule="evenodd" clip-rule="evenodd" d="M59.7013 158.419C56.5279 156.359 56.1295 155.916 54.3224 152.448C53.3977 150.674 51.7772 147.975 50.7208 146.45C48.2726 142.915 46.9912 139.429 46.7921 135.757C46.6304 132.782 46.7512 131.812 47.2625 131.983C47.4274 132.038 49.0674 133.575 50.9066 135.398C55.6578 140.107 58.7372 141.782 64.823 142.966C67.6175 143.51 70.1908 143.178 70.4965 142.234C70.7789 141.361 69.4704 140.354 65.3314 138.257C58.6672 134.881 57.5296 134.236 55.5054 132.685C52.7571 130.577 48.7844 126.585 47.7495 124.89C46.4142 122.702 46.4189 121.378 47.7808 116.011C48.824 111.901 49.1093 109.953 49.1549 106.635C49.16 106.255 49.3315 106.056 49.5815 106.14C50.2496 106.363 57.0264 114.263 61.1441 119.618C65.1695 124.853 67.3789 127.14 71.0743 129.897C74.1293 132.177 74.7625 132.377 75.148 131.186C75.5185 130.041 74.7911 126.979 73.8387 125.673C72.6816 124.086 70.5845 122.072 66.6578 118.777C59.4313 112.713 55.6585 108.279 53.427 103.227C52.2069 100.465 52.1861 99.7276 53.2583 97.2195C54.1163 95.2121 58.5754 88.8383 59.4732 88.336C60.1898 87.935 60.1859 87.9294 63.4782 93.7415C70.7734 106.621 78.6909 115.664 81.7526 114.615C84.623 113.632 77.0917 105.135 76.5195 104.454C71 97.8867 66.8832 92.0273 64.4101 87.2181C62.4712 83.4485 63.1915 81.6309 68.1775 77.7102C69.8269 76.4128 72.0725 74.4841 73.1681 73.4239C74.2638 72.3636 75.3231 71.5505 75.522 71.6171C75.7209 71.6837 76.0998 72.7953 76.3642 74.0872C77.9716 81.9427 79.7446 86.9112 84.4489 96.7384C87.8501 103.844 89.8922 106.297 91.9655 105.768C93.0916 105.48 92.2471 103.015 88.539 95.7649C84.0657 87.0179 82.1826 82.5755 80.8234 77.5655C79.6332 73.1771 79.4911 71.2186 80.2764 70.0175C81.2054 68.597 87.1362 64.918 89.9159 64.038C93.0443 63.0475 96.4459 62.615 97.0649 63.1291C97.4622 63.4587 97.3274 64.0003 95.9772 67.5049C94.1955 72.1275 93.91 74.0838 94.2476 79.3529C94.7312 86.8964 97.6322 97.3842 99.1342 97.0176C99.7702 96.8624 100.528 93.8405 100.575 91.274C100.716 83.544 99.4152 76.274 100.282 68.4247C100.541 66.0824 101.867 63.6339 103.929 62.5835C107.9 60.5621 112.785 60.6539 116.974 61.6265C121.574 62.6945 122.524 62.7456 123.436 61.9731C123.782 61.6805 124.167 61.4752 124.293 61.5172C124.418 61.5593 124.787 62.578 125.111 63.781C125.464 65.0891 126.379 66.9453 127.389 68.4006C129.42 71.3263 129.478 72.2052 127.868 75.5684C125.693 80.1116 123.048 83.3988 119.19 86.353C116.47 88.4365 115.574 89.3502 115.239 90.3859C114.661 92.1726 116.642 92.2335 119.959 90.5312C122.349 89.3044 126.845 84.7596 128.641 81.7541C131.05 77.7237 131.315 77.3622 131.748 77.5073C132.284 77.6871 133.564 80.5685 133.877 82.3012C134.057 83.2987 133.869 84.3251 133.038 86.8932C132.018 90.0459 131.875 90.2959 129.978 92.2498C127.777 94.5171 123.562 97.1075 118.279 99.4393C109.491 103.318 105.86 105.649 105.941 107.362C106.017 108.959 113.532 108.48 116.721 106.674C120.645 104.452 121.367 103.966 124.816 101.227C129.067 97.8522 131.369 95.4653 132.708 93.0448C133.8 91.07 134.215 90.8029 134.782 91.7114C135.273 92.4997 135.891 97.878 135.798 100.561C135.699 103.421 134.37 106.847 132.731 108.468C130.231 110.939 128.162 112.332 125.107 113.599C120.786 115.392 118.377 116.006 111.714 117.015C105.41 117.968 103.058 118.77 102.834 120.043C102.713 120.729 102.869 120.883 104.01 121.213C106.046 121.802 113.303 121.242 117.057 120.207C122.383 118.738 128.312 116.277 130.713 114.539C131.66 113.853 133.395 112.424 134.57 111.364C135.745 110.303 136.833 109.478 136.989 109.53C137.747 109.784 136.899 117.587 135.715 121.254C134.964 123.58 133.542 124.821 129.87 126.358C124.187 128.736 120.45 129.337 111.216 129.358C106.98 129.368 103.124 129.477 102.646 129.601C100.609 130.13 102.539 132.31 106.116 133.521C108.765 134.418 112.15 134.679 117.482 134.397C122.833 134.114 125.615 133.406 130.388 131.113C132.664 130.02 134.675 129.176 134.858 129.237C135.699 129.519 133.938 135.759 132.057 139.162C129.717 143.393 125.746 144.227 111.913 143.394C110.727 143.323 100.466 143.913 105.819 146.064C109.987 147.738 120.319 149.343 125.045 149.051C126.822 148.941 128.328 148.956 128.392 149.084C128.455 149.212 127.717 150.25 126.753 151.392C125.788 152.533 124.302 154.844 123.453 156.527C122.602 158.209 121.309 160.238 120.578 161.033C118.886 162.875 115.251 164.694 112.594 165.027C108.063 165.596 107.193 165.787 105.621 166.556C104.71 167.001 103.626 167.881 103.172 168.543C101.267 171.32 98.0734 171.364 94.7417 168.659C92.3449 166.712 91.47 164.621 90.6601 158.902C90.4382 157.334 92.1039 145.258 87.3371 144.428C83.5418 143.156 80.9042 150.15 79.3922 152.162C76.3811 156.167 72.834 160.222 67.5528 161.061C65.7588 161.347 62.5454 160.265 59.7013 158.419ZM86.0068 131.458C86.7814 131.148 87.2798 129.596 87.0576 128.186C86.8507 126.877 85.2651 124.276 83.8491 122.924C82.9771 122.092 82.573 121.93 80.8866 121.734C76.741 121.254 75.6484 123.69 78.5223 127.006C81.5776 130.531 84.29 132.145 86.0068 131.458ZM90.8014 117.157C91.4175 115.253 88.8444 111.306 87.2479 111.705C86.4366 111.908 85.8543 113.177 86.1651 114.064C86.638 115.414 88.3532 117.305 89.432 117.666C90.3925 117.988 90.5514 117.929 90.8014 117.157Z" fill="#21825C"/>
<path d="M139.396 181.975C137.214 181.777 136.655 180.324 135.015 179.503C133.644 178.815 133.746 177.433 133.555 176.22C133.144 173.618 136.119 172.082 137.649 170.524C141.191 166.918 136.908 165.181 134.843 168.593C133.595 170.658 132.214 174.27 129.479 174.545C128.649 174.629 127.829 174.512 127.294 173.846C126.451 172.795 125.409 171.873 124.986 170.514C124.381 168.576 123.989 166.655 124.864 164.664C125.141 164.033 125.085 163.253 125.344 162.61C127.235 157.897 131.948 153.846 136.289 151.594C138.597 150.396 140.94 149.261 143.307 148.186C144.306 147.733 145.429 147.741 146.464 147.417C147.837 146.992 149.222 146.604 150.573 146.116C151.478 145.789 152.323 145.297 153.212 144.921C154.305 144.458 155.444 144.028 156.559 143.62C157.324 143.341 160.138 141.699 160.331 143.218C160.764 146.618 160.551 150.006 160.079 153.371C159.805 155.321 159.466 157.311 158.783 159.14C157.964 161.334 157.229 163.628 156.551 165.873C156.245 166.886 155.696 167.732 155.097 168.604C154.082 170.079 153.287 171.711 152.389 173.271C151.957 174.023 151.547 174.796 151.04 175.493C150.158 176.705 139.956 168.606 149.624 175.991C149.977 176.261 150.054 176.496 149.771 176.911C148.589 178.638 146.967 179.757 145.087 180.541C143.295 181.323 141.383 182.155 139.396 181.975Z" fill="#79B664"/>
<path fill-rule="evenodd" clip-rule="evenodd" d="M45.7619 88.0609C46.1578 88.3998 47.1184 89.6405 47.8965 90.8177C49.4667 93.1938 50.708 94.3584 54.1872 96.7194C60.1646 100.776 65.7928 106.304 67.4461 109.743C68.0458 110.99 69.3057 114.996 69.9382 117.665C70.7529 121.104 71.116 122.042 73.5707 127.046C74.6774 129.302 75.8101 131.955 76.0875 132.942C77.5102 138 77.8209 139.253 78.0956 141.043C78.2602 142.114 78.3534 143.91 78.3033 145.033C78.2269 146.74 78.0737 147.346 77.3706 148.725C76.2642 150.894 74.6114 152.586 72.29 153.925C69.717 155.408 69.2269 155.601 67.3289 155.874C66.4248 156.004 65.4185 155.436 65.3394 155.517C65.26 155.597 65.755 157.124 66.1929 158.004C67.314 160.256 67.846 161.752 69.0112 165.936C70.449 171.097 70.8721 174.163 70.2774 175.112C69.8881 175.734 69.1692 175.079 68.9832 173.932C68.894 173.383 68.7476 171.915 68.6581 170.671C68.4664 168.007 67.9692 165.454 67.2407 163.393C66.9522 162.577 66.5049 161.276 66.2466 160.5C65.349 157.806 64.6069 156.048 64.3314 155.954C64.179 155.902 63.9623 157.969 63.3281 159.313C61.953 162.227 61.0667 163.197 59.4595 163.548C57.8972 163.889 56.5816 163.569 53.7689 162.167C49.0821 159.829 44.3579 155.401 42.0096 151.143C37.4879 142.945 35.0884 136.305 32.6066 125.124C30.6867 116.473 30.4947 109.981 31.992 104.359C33.4745 98.7951 39.9213 90.1112 44.2397 87.8622C45.013 87.4595 45.0675 87.4664 45.7619 88.0609ZM40.1781 98.5021C38.7413 99.1681 39.0485 100.647 40.9152 102.05C42.3641 103.139 44.9314 104.009 45.8355 103.717C46.5149 103.498 46.4781 102.577 45.7302 101.082C45.0554 99.7338 44.255 98.8776 43.3111 98.4946C42.4453 98.1434 40.9442 98.147 40.1781 98.5021ZM53.9148 100.618C53.7533 100.816 53.4136 101.71 53.1603 102.604C52.9068 103.499 52.2189 105.184 51.6315 106.348C50.7523 108.092 50.5926 108.622 50.7274 109.352C50.9358 110.482 51.4723 111.024 52.3827 111.024C53.8684 111.024 54.7564 108.852 55.1536 104.245C55.3577 101.88 55.336 101.339 55.0177 100.845C54.5805 100.167 54.3258 100.114 53.9148 100.618ZM33.9878 103.737C33.9878 104.991 36.5928 108.008 38.7793 109.285C40.2366 110.137 43.5492 111.281 44.5587 111.281C45.6934 111.281 47.0153 110.646 47.2152 110.005C47.4626 109.212 46.3367 107.6 44.8807 106.662C43.4578 105.746 41.9425 105.295 38.9217 104.89C37.5859 104.711 36.4099 104.4 36.0238 104.126C34.8327 103.278 33.9878 103.117 33.9878 103.737ZM60.9158 108.247C60.3113 109.38 59.2826 111.035 58.6302 111.924C56.701 114.554 56.7527 115.467 58.8487 115.786C61.033 116.12 61.5576 115.434 62.8024 110.619C63.5707 107.647 63.6224 106.858 63.0852 106.311C62.4794 105.695 62.0938 106.039 60.9158 108.247ZM41.0434 114.61C40.1607 115.182 41.8795 116.46 44.9556 117.519C46.8679 118.177 47.8471 118.081 47.8471 117.234C47.8471 116.177 46.4214 115.106 44.503 114.722C42.539 114.328 41.5285 114.295 41.0434 114.61ZM33.6274 118.999C33.2819 119.321 33.9502 120.436 34.9909 121.275C37.755 123.501 42.6829 125.967 46.0195 126.792C48.8196 127.484 51.375 126.726 51.375 125.204C51.375 124.054 50.6808 122.884 49.513 122.067C47.705 120.802 47.0378 120.617 39.2795 119.24C37.6857 118.957 36.0982 118.684 35.7517 118.634C34.9892 118.522 33.9474 118.701 33.6274 118.999ZM63.9608 120.977C62.1498 122.148 60.7953 123.915 59.0339 127.407C57.6641 130.122 57.9574 131.106 60.1442 131.133C61.3056 131.148 61.3164 131.14 62.4008 129.482C63.8275 127.3 65.098 124.612 65.6318 122.646C66.3111 120.145 65.8938 119.728 63.9608 120.977ZM67.7134 130.586C63.9379 134.979 62.2105 137.934 62.2105 140.001C62.2105 141.556 62.6946 141.902 64.8057 141.863C66.9088 141.823 67.8009 141.14 68.9106 138.719C70.289 135.711 70.5851 134.38 70.4868 131.631C70.3999 129.202 70.1507 128.58 69.3836 128.879C69.2153 128.945 68.4636 129.713 67.7134 130.586ZM45.0082 130.25C43.2504 131.042 43.1874 131.789 44.7842 132.915C46.31 133.991 48.7258 134.856 51.5831 135.351C55.8173 136.083 56.2946 135.594 53.7371 133.14C51.8366 131.317 50.7924 130.682 48.7918 130.134C46.9743 129.636 46.3294 129.656 45.0082 130.25ZM37.818 136.198C36.8967 137.135 38.3678 139.252 40.7509 140.419C41.5356 140.803 43.1909 141.804 44.4294 142.644C49.5919 146.145 54.3986 147.468 56.3928 145.938C56.9482 145.512 57.0432 145.244 57.0341 144.128C57.0248 142.99 56.9092 142.697 56.1522 141.896C55.6729 141.389 54.9973 140.823 54.6508 140.638C53.4483 139.997 50.7261 139.202 47.2172 138.469C45.26 138.059 42.7358 137.329 41.5474 136.829C39.2599 135.867 38.3026 135.705 37.818 136.198ZM71.2065 144.514C69.9969 145.144 68.0546 146.866 66.9476 148.291C65.2165 150.519 65.9543 151.94 68.7095 151.686C70.379 151.532 71.4648 150.897 72.3475 149.56C73.0599 148.481 73.802 146.057 73.802 144.809C73.802 144.161 73.7183 144.094 72.9074 144.094C72.4155 144.094 71.6502 144.283 71.2065 144.514ZM44.343 150.602C43.4081 151.748 53.3297 155.878 57.2017 155.954C61.7037 156.043 60.9687 152.693 56.2888 151.792C47.8847 150.175 44.9311 149.88 44.343 150.602Z" fill="#1E6147"/>
</svg>
