<svg width="59" height="138" viewBox="0 0 59 138" fill="none" xmlns="http://www.w3.org/2000/svg">
<path d="M28.4966 61.6348C30.3421 63.027 33.3805 64.013 34.4285 65.8986C35.4764 67.7842 30.7572 70.9174 27.2224 77.6894C25.2011 81.5617 22.8723 85.2598 21.1586 89.2626C19.0207 95.1999 20.6843 104.6 25.0693 109.646C28.3208 113.387 31.4405 117.26 34.2966 121.262C35.8609 123.455 37.7507 124.107 39.5535 126.112C42.8621 129.791 38.3295 141.157 41.2391 137.16C46.4108 130.057 46.2041 122.224 42.9528 117.216C39.7891 112.343 35.9663 107.905 32.2754 103.424C30.2103 100.916 28.5406 97.1812 30.2103 93.5265C31.88 89.8718 34.0769 86.3911 35.7906 82.7363C37.8997 78.2985 42.074 74.6873 44.0513 70.2059C46.468 64.7238 44.227 59.5028 39.2179 56.9358C37.4164 56.0221 35.7028 54.891 34.077 53.6292C31.177 51.3668 29.1118 48.4952 29.1118 44.797C29.1557 40.7507 29.2875 36.6174 30.2103 32.7452C30.5835 31.1789 31.6778 29.7939 32.1876 29.2211C37.5043 32.0926 42.3376 34.7466 47.2149 37.3136C49.8513 38.7058 52.7074 39.315 55.6953 38.7493C58.5074 38.2272 60.0014 34.9206 58.2438 32.7452C56.9695 31.1789 55.4317 29.7866 53.718 28.7424C50.9498 27.0456 47.874 25.9144 45.1937 24.2176L44.9232 24.0453C36.8833 18.9256 28.8208 13.7914 26.3875 3.55125C25.7284 0.897231 23.4875 -0.190492 21.0269 0.0270529C18.6541 0.244582 17.0723 1.76742 16.3693 4.55197C16.2374 5.07407 16.1056 5.68314 16.1496 6.24875C16.4132 10.295 14.2601 13.471 12.0192 16.5166C9.7783 19.6057 7.31766 22.4772 5.0328 25.4793C3.62673 27.3502 2.17674 29.2211 0.990366 31.179C-0.459645 33.5284 -0.283907 35.1382 1.29792 36.6609C3.01157 38.3143 5.29643 38.3143 7.49341 36.1389C10.9646 32.6582 14.1723 28.873 17.5117 25.2183C18.8738 23.739 20.148 22.1727 21.598 20.7369C21.9056 20.4759 22.7845 20.4758 23.2238 20.6934C23.6632 20.9109 24.1466 21.6506 24.0587 22.0422C23.839 23.1299 23.4436 24.2176 22.9602 25.2183C19.445 32.9628 19.3132 33.5283 19.0496 42.0559C18.7859 50.2355 22.0814 56.6748 28.4966 61.6348Z" fill="#11412E"/>
</svg>
