<svg width="198" height="348" viewBox="0 0 198 348" fill="none" xmlns="http://www.w3.org/2000/svg">
<path d="M84.2579 347.212C92.9183 346.439 95.1353 340.769 101.645 337.566C107.083 334.884 106.681 329.492 107.439 324.763C109.07 314.612 97.2634 308.619 91.1914 302.542C77.1348 288.477 94.1333 281.699 102.325 295.009C107.281 303.065 112.759 317.154 123.615 318.229C126.905 318.556 130.161 318.099 132.282 315.501C135.629 311.4 139.763 307.803 141.445 302.502C143.843 294.942 145.401 287.448 141.928 279.683C140.828 277.221 141.049 274.181 140.022 271.67C132.52 253.285 113.814 237.484 96.588 228.697C87.4287 224.024 78.1307 219.598 68.7385 215.405C64.774 213.638 60.3145 213.667 56.2086 212.403C50.7611 210.747 45.2655 209.231 39.9015 207.328C36.3113 206.054 32.9561 204.136 29.4293 202.667C25.0916 200.86 20.5727 199.185 16.1481 197.594C13.1108 196.502 1.94623 190.097 1.17732 196.024C-0.538751 209.286 0.307014 222.504 2.17956 235.628C3.26616 243.235 4.60962 251.001 7.322 258.135C10.573 266.691 13.4896 275.64 16.1781 284.4C17.393 288.351 19.573 291.653 21.9511 295.052C25.9792 300.807 29.1327 307.174 32.6949 313.259C34.4088 316.192 36.0367 319.206 38.0511 321.925C41.5481 326.653 82.0351 295.059 43.6673 323.87C42.2687 324.922 41.9618 325.839 43.0841 327.456C47.7766 334.192 54.213 338.558 61.6739 341.619C68.784 344.668 76.3713 347.915 84.2579 347.212Z" fill="#79B664"/>
<path fill-rule="evenodd" clip-rule="evenodd" d="M127.41 327.68C127.29 326.171 125.711 322.071 123.902 318.568C120.678 312.326 118.072 305.715 115.172 296.42C114.373 293.862 113.357 291.81 112.914 291.86C111.885 291.978 94.8446 279.265 87.9071 273.204C83.2608 269.144 81.872 268.305 76.4872 266.305C61.9366 260.9 58.1272 259.338 55.7001 257.777C52.4468 255.686 53.5132 255.796 64.8929 258.719C69.6212 259.933 74.0578 260.897 74.7512 260.86C76.1121 260.789 75.2319 259.608 68.9675 253.104C62.6331 246.526 66.653 249.004 81.2524 260.676C87.772 265.888 89.8908 267.168 99.3599 271.618C105.258 274.39 110.176 276.461 110.289 276.22C110.402 275.979 109.852 273.74 109.066 271.246L107.637 266.71L94.2765 260.374C81.7137 254.415 68.4849 246.448 66.278 243.51C65.8872 242.991 68.5032 243.675 72.0911 245.031C77.8622 247.211 85.0474 250.775 101.875 259.805C104.543 261.238 106.821 262.194 106.937 261.931C107.054 261.669 106.695 259.825 106.14 257.833L105.131 254.213L98.25 251.919C87.2121 248.238 64.9978 236.445 53.9944 228.424C40.9952 218.949 38.3572 216.249 44.9429 219.16C70.0529 230.257 91.0654 241.557 102.996 250.379C104.643 251.597 104.94 251.593 105.163 250.352C105.305 249.56 105.283 248.231 105.115 247.397C104.653 245.103 96.8259 237.522 92.6461 235.318C81.104 229.234 73.6666 224.976 68.8789 221.711C63.5756 218.095 49.0964 206.447 43.9514 201.658L41.3285 199.217L46.4968 201.59C51.2528 203.775 74.2484 216.478 81.0848 220.697C83.9018 222.437 83.8143 222.241 78.662 215.287C74.2099 209.279 72.4983 207.557 68.4225 204.985C61.9956 200.931 47.8755 190.755 44.9061 188.038L42.5628 185.893L45.3719 186.928C46.9166 187.497 51.6501 189.997 55.8914 192.484C60.132 194.97 64.93 197.628 66.5531 198.391L69.504 199.778L68.7223 197.61C68.01 195.633 59.7366 187.494 52.3959 181.548C49.3837 179.108 40.2162 168.089 42.8661 170.094C43.7162 170.736 46.3423 172.769 48.7026 174.611C56.3315 180.564 57.8995 181.683 60.1541 182.78C61.3727 183.373 62.469 183.621 62.5895 183.333C62.9802 182.396 55.9472 170.172 52.9206 166.527C51.3019 164.578 48.4659 160.584 46.6181 157.652C44.7706 154.72 42.5056 151.317 41.5843 150.09C38.5763 146.081 40.2728 146.755 46.5259 152.054C57.3972 161.267 58.4111 161.597 52.2712 153.924C49.2684 150.171 47.0313 147.021 47.3006 146.924C47.5696 146.827 50.9201 149.602 54.7451 153.09C58.5704 156.577 66.6202 163.404 72.6332 168.259C90.4122 182.615 93.6057 185.323 98.2463 189.972C100.674 192.405 102.729 194.251 102.812 194.074C103.21 193.227 103.295 187.17 102.911 186.983C102.672 186.865 99.2208 184.467 95.2436 181.653C91.2661 178.841 86.3035 175.361 84.2156 173.921C77.7582 169.468 60.2518 152.743 54.78 145.8C51.3434 141.439 46.0027 133.111 46.2736 132.534C46.638 131.759 47.2186 132.128 55.1538 138.182C75.6526 153.818 85.785 163.437 100.934 181.642C103.13 184.282 103.856 184.052 104.066 180.649C104.321 176.516 104.07 176.068 99.39 172.311C90.948 165.537 74.4185 148.785 67.5828 140.076C62.4981 133.598 53.9697 119.846 54.4072 118.829C54.5151 118.58 56.719 120.49 59.3064 123.075C61.893 125.66 66.5297 130.231 69.6091 133.232C72.6883 136.234 77.4009 141.249 80.0812 144.378C82.7615 147.507 85.1211 150.145 85.3243 150.24C85.5274 150.336 89.5478 155.241 94.2578 161.141C98.9679 167.041 103.2 172.046 103.66 172.262C104.58 172.694 105.692 170.829 105.46 169.246C105.38 168.698 103.179 166.373 100.57 164.08C88.4629 153.439 77.6148 139.503 70.268 125.155C69.3068 123.278 67.1366 119.312 65.4449 116.342C63.7533 113.372 62.3257 110.565 62.2724 110.104C62.0334 108.017 80.9009 131.718 91.9315 147.361C95.8893 152.973 99.2494 157.622 99.3977 157.692C99.5466 157.762 100.804 159.484 102.192 161.518C103.58 163.553 104.996 165.349 105.337 165.51C105.678 165.67 106.089 164.556 106.251 163.035C106.508 160.623 105.922 159.497 101.667 154.22C91.8828 142.084 79.8983 124.102 75.7328 115.309C72.4319 108.341 65.295 88.5576 66.4908 89.691C67.0019 90.1741 76.2773 105.336 87.1032 123.383C102.882 149.684 106.947 155.963 107.587 155.021C109.9 151.625 107.358 145.353 98.3561 132.242C90.6779 121.059 83.3963 108.238 79.4115 98.8838C77.5958 94.6214 73.714 80.9721 74.2618 80.7746C74.5382 80.6749 76.9267 84.1927 79.5694 88.5924C85.8175 98.9944 86.6382 100.339 87.7785 102.047C88.3024 102.833 87.9446 100.51 86.9832 96.8846C85.117 89.8521 81.9922 75.2927 81.4201 70.9654C81.0809 68.4015 81.0935 68.3747 82.0275 69.68C82.5525 70.4134 88.1259 84.8828 94.4137 101.834C104.669 129.484 109.179 139.81 110.752 139.243C111.039 139.139 111.568 137.921 111.928 136.536C112.467 134.457 111.977 132.968 109.111 127.986C104.993 120.825 97.3135 99.855 94.4391 87.9166C92.5784 80.1896 90.4554 67.0426 90.9114 66.0723C91.2984 65.2487 94.9279 73.4517 99.6154 85.7411C107.19 105.602 108.946 110.812 111.091 119.789C112.189 124.383 113.265 128.077 113.484 127.998C113.702 127.919 114.207 126.384 114.606 124.588C115.167 122.057 114.878 120.347 113.324 117.002C107.825 105.168 103.937 89.1467 102.371 71.8732C101.532 62.6078 101.643 48.992 102.556 49.4209C102.694 49.4857 103.19 51.9492 103.657 54.8954C104.792 62.0546 110.163 84.7184 110.732 84.5129C111.257 84.324 108.888 68.0447 108.307 64.6908C107.752 61.4927 107.24 55.4326 107.017 49.4229L106.828 44.3068L108.481 48.4351C109.39 50.7053 113.2 68.5978 113.518 69.6691C114.367 72.5256 111.722 56.4948 112.137 46.745C112.344 41.8865 112.631 37.8698 112.773 37.8185C114.127 37.3303 116.127 46.9711 119.722 71.3118C121.331 82.2056 122.906 92.1828 123.223 93.4837L123.8 95.8493L125.627 91.9995C127.281 88.5149 127.34 87.7601 126.25 84.0279C122.868 72.4594 121.047 52.9998 122.103 39.7161C122.549 34.1046 123.092 33.0999 123.261 37.5767C123.318 39.1007 124.247 46.9841 125.326 55.0941C126.404 63.2041 127.612 73.0952 128.01 77.075C128.409 81.0544 128.963 84.2278 129.242 84.1277C129.521 84.0269 130.406 82.329 131.209 80.3553C132.501 77.1797 132.486 76.0912 131.083 70.8907C129.099 63.5347 127.138 47.6762 127.231 39.7405C127.315 32.5982 128.089 25.4552 128.809 25.1962C129.091 25.0943 130.184 30.5266 131.237 37.2682C132.986 48.4741 134.08 62.3246 134.303 59.3131C134.923 50.9789 139.622 17.8679 140.234 19.9527C140.361 20.3834 140.436 25.8124 140.401 32.017C140.347 41.6559 139.331 53.3997 137.615 64.2205C137.255 66.4854 137.373 66.7779 138.307 65.9435C139.051 65.2785 139.903 60.8579 140.823 52.8827C141.588 46.2529 142.847 37.9208 143.62 34.3674C145.002 28.0136 150.402 11.71 151.221 11.4146C151.848 11.1883 150.129 22.5723 147.185 38.1374C143.098 59.7472 143.276 58.4199 144.699 56.6971C145.38 55.8718 146.518 52.1372 147.267 48.2693C148.009 44.4487 149.646 37.5252 150.907 32.884C153.518 23.2744 160.268 6.16454 161.265 6.63281C161.62 6.79954 161.174 10.077 160.275 13.9174L157.283 26.7149L163.713 10.9931C166.504 5.54427 169.079 0.982322 169.435 0.854921C169.791 0.727196 169.218 2.97315 168.162 5.84483C167.106 8.71684 165.364 13.8582 164.289 17.2701C162.456 23.0935 160.817 28.4196 162.496 26.0626C163.48 24.6818 167.58 15.8423 169.616 12.6519C175.14 4.00162 176.098 2.71169 176.766 3.0258C177.102 3.1835 175.937 6.37533 174.178 10.1189C169.585 19.8921 165.501 25.5139 171.735 18.8839C177.646 12.5976 185.608 4.69725 189.684 2.81241L192.379 1.56566L190.79 3.33228C189.917 4.30434 187.222 7.18505 184.801 9.73411C175.728 19.2924 172.586 23.8441 177.595 20.1757C184.526 15.099 197.454 8.48409 196.612 10.4449C196.41 10.9142 192.376 14.3166 187.647 18.006C182.918 21.6954 173.745 27.0866 173.651 27.2856C173.558 27.4846 181.909 24.3546 185.819 23.0311C201.054 17.877 201.804 19.1803 187.769 26.4191C183.913 28.4089 173.382 31.7673 173.593 31.8663C173.804 31.9653 183.228 30.122 185.311 29.7866C187.395 29.4513 190.013 29.1359 191.129 29.0856C194.393 28.9376 192.437 29.8441 177.432 35.4265C162.015 41.1634 162.167 41.0901 161.114 43.2938C160.475 44.6323 161.194 44.4876 165.487 42.4167C171.096 39.7103 174.277 38.6834 179.85 37.7784C185.981 36.7828 185.254 37.7231 177.712 40.5438C168.283 44.0705 152.126 51.6954 151.569 52.882C150.753 54.6175 152.181 54.2245 157.699 51.195C163.262 48.1421 170.638 45.8967 175.618 45.7415C179.385 45.6241 180.591 46.4186 177.73 47.1325C176.424 47.4583 171.539 49.0142 166.873 50.5905C162.207 52.1664 156.391 54.0254 153.948 54.7205C151.506 55.416 148.903 56.6405 148.165 57.4424C146.915 58.7994 146.942 58.87 148.562 58.4666C149.518 58.2279 151.433 57.6793 152.817 57.247C164.995 53.439 177.627 50.9172 176.913 52.4352C176.462 53.3946 157.354 58.43 151.334 59.1752C146.593 59.7622 145.636 60.1572 144.837 61.8585C143.905 63.8418 143.952 63.8414 152.616 61.7966C160.803 59.8646 172.687 57.5011 175.376 57.2691C178.109 57.0339 174.028 58.8032 165.507 61.5469C157.65 64.0771 153.406 64.9714 144.355 66.0045C142.454 66.2214 141.674 66.8052 140.799 68.6684C140.182 69.9806 139.883 71.151 140.133 71.2687C140.384 71.3864 143.467 70.6411 146.985 69.6134C157.433 66.5599 173.396 63.4878 172.856 64.6339C172.334 65.7419 150.013 71.617 142.501 72.6235C139.022 73.0898 138.586 73.3762 137.346 76.0163L135.991 78.9L141.678 76.9932C144.807 75.9449 147.611 74.993 147.909 74.8775C151.595 73.4594 167.356 69.3804 168.916 69.4408C170.05 69.4854 171.731 69.3241 172.651 69.0829C174.576 68.5777 174.361 69.6362 172.331 70.6544C169.112 72.2691 147.936 78.1628 142.634 78.9194C139.453 79.3741 136.31 79.8915 135.65 80.0697C134.432 80.3989 132.145 84.4128 132.544 85.5195C132.664 85.8523 135.131 85.0162 138.027 83.6618C143.348 81.1737 151.556 78.9742 161.287 77.4286C172.517 75.6447 176.213 75.5945 172.28 77.2787C170.531 78.0282 155.529 81.9867 140.91 85.5576C133.478 87.3729 130.473 88.7452 130.645 90.2454C130.762 91.268 131.801 91.1423 135.714 89.6332C144.917 86.0832 156.09 83.8767 165.245 83.802C170.102 83.7621 174.173 83.9941 174.289 84.3176C174.405 84.6414 174.33 84.9353 174.121 84.9713C173.912 85.0069 170.405 85.7167 166.328 86.5487C162.251 87.3807 152.528 89.0173 144.722 90.1849C135.168 91.6146 130.339 92.7125 129.948 93.5432C129.496 94.5023 131.244 94.4591 137.788 93.3493C148.68 91.5014 158.694 91.2148 167.528 92.4967C171.481 93.0697 168.549 93.6407 158.74 94.2066C130.843 95.8156 129.222 95.9852 128.289 97.3919C127.118 99.1606 127.759 99.4374 131.658 98.8492C137.544 97.961 147.723 97.585 154.901 97.9913C172.598 98.9936 170.61 100.5 151.257 100.752C143.737 100.85 135.597 100.842 133.169 100.734C127.5 100.481 126.546 100.825 125.921 103.339C125.315 105.773 125.836 106.137 129.138 105.588C137.026 104.276 159.655 103.049 163.708 103.713L165.653 104.032L163.634 104.761C160.384 105.936 141.941 107.897 132.554 108.067C123.301 108.234 123.562 108.096 122.845 113.224C122.755 113.859 125.858 113.597 131.306 112.511C142.606 110.258 152.583 109.467 160.619 110.187C164.207 110.508 167.325 110.858 167.549 110.963C169.031 111.659 158.536 113.707 149.284 114.528C148.459 114.601 144.696 114.997 140.921 115.408C137.146 115.82 131.486 115.976 128.344 115.754C125.201 115.533 122.376 115.492 122.066 115.663C121.263 116.104 118.598 123.148 119.14 123.398C119.388 123.512 123.646 122.486 128.603 121.118C142.214 117.363 147.828 116.271 154.213 116.136C160.582 116.001 165.95 116.516 166.229 117.289C166.327 117.561 163.028 118.404 158.898 119.164C154.767 119.922 149.895 120.818 148.07 121.153C136.945 123.198 125.19 125.028 122.422 125.147C120.656 125.223 118.983 125.434 118.704 125.616C118.425 125.798 117.821 127.557 117.362 129.524L116.528 133.101L126.627 129.73C132.183 127.876 140.053 125.891 144.116 125.319C152.355 124.16 165.082 123.592 165.363 124.371C165.682 125.255 143.239 130.894 134.977 132.006C133.539 132.2 128.579 133.241 123.954 134.32L115.547 136.282L114.479 139.43C113.892 141.16 113.488 142.788 113.581 143.049C113.675 143.308 118.046 141.921 123.296 139.967C128.545 138.013 135.779 135.778 139.369 135.002C147.286 133.29 166.797 130.709 167.851 131.234C168.269 131.442 164.38 132.991 159.211 134.677C154.041 136.363 138.014 140.781 138.58 141.047C139.147 141.312 155.727 138.124 160.44 137.41C165.153 136.695 169.092 136.337 169.192 136.615C169.292 136.892 164.697 138.646 158.982 140.513C153.266 142.38 148.808 144.018 149.076 144.154C149.343 144.29 152.289 144.037 155.623 143.593C158.956 143.148 162.955 142.742 164.508 142.691C167.211 142.6 167.278 142.636 166.075 143.522C163.397 145.494 134.677 155.013 122.885 157.838C113.194 160.159 110.249 161.191 109.4 162.561C108.314 164.316 108.068 167.632 108.991 168.063C109.261 168.188 114.03 166.235 119.589 163.722C125.147 161.21 133.364 158.166 137.848 156.959C147.317 154.411 164.654 150.656 165.38 150.997C166.006 151.291 159.742 154.36 150.224 158.422C142.574 161.688 126.452 166.475 114.815 168.937C107.542 170.475 107.744 170.273 107.434 176.339C107.269 179.554 107.757 179.844 110.62 178.23C119.265 173.357 138.806 164.467 145.079 162.553C153.679 159.93 167.925 156.382 168.597 156.698C169.532 157.137 153.955 163.566 117.53 177.776L107.194 181.808L106.923 185.333C106.774 187.272 106.912 189.002 107.229 189.177C107.545 189.353 111.067 187.409 115.056 184.859C127.344 177.001 135.902 172.797 146.425 169.449C156.035 166.391 168.282 163.51 167.861 164.406C167.753 164.636 165.795 165.694 163.509 166.758C157.372 169.615 143.165 177.67 143.352 178.187C143.44 178.433 148.748 176.805 155.146 174.57C161.545 172.335 167.182 170.546 167.673 170.595C168.164 170.645 165.629 172.092 162.038 173.812C152.684 178.292 140.694 184.778 140.329 185.554C140.158 185.918 142.603 185.329 145.762 184.244C154.923 181.098 171.396 177.455 171.77 178.491C171.849 178.709 168.963 180.117 165.357 181.619C155.367 185.783 131.505 196.977 124.22 200.918C120.651 202.849 115.321 205.702 112.374 207.258C109.427 208.814 106.812 210.521 106.562 211.053C106.313 211.584 106.159 213.604 106.223 215.542L106.337 219.064L110.786 215.349C121.346 206.532 140.13 197.274 159.304 191.437C169.402 188.363 171.091 188.461 164.529 191.741C153.431 197.288 144.605 202.084 140.641 204.722L136.583 207.423L145.467 204.299C150.354 202.58 155.418 200.914 156.72 200.595C158.021 200.276 159.722 199.836 160.499 199.617C161.276 199.397 163.481 198.916 165.4 198.548C169.798 197.702 169.358 199.026 164.348 201.708C162.334 202.787 159.202 204.556 157.387 205.64C153.186 208.149 139.701 214.53 126.032 220.477C120.176 223.025 113.392 226.062 110.956 227.225L106.526 229.342L106.771 236.875L112.197 232.562C119.85 226.479 134.193 219.121 150.554 212.885C158.266 209.945 164.655 207.758 164.751 208.025C164.955 208.593 152.592 216.068 145.195 219.848C136.399 224.343 137.506 224.147 152.285 218.597C160.17 215.637 166.741 213.544 166.887 213.949C167.032 214.353 165.968 215.161 164.521 215.742C163.073 216.325 154.815 220.871 146.171 225.846C137.526 230.821 125.434 237.131 119.3 239.868C108.257 244.797 108.151 244.869 108.462 247.066C108.635 248.288 109.143 249.244 109.592 249.193C110.041 249.142 113.584 246.831 117.467 244.059C125.273 238.486 130.417 235.798 143.533 230.439C151.324 227.256 164.756 223.846 165.154 224.949C165.235 225.173 162.023 226.964 158.017 228.93C154.01 230.896 148.375 233.811 145.492 235.408C142.61 237.005 136.567 239.82 132.063 241.664C121.541 245.973 110.19 251.468 109.719 252.482C109.517 252.917 109.641 254.482 109.997 255.96L110.641 258.646L119.095 253.697C133.187 245.448 147.892 238.807 157.874 236.18C164.745 234.373 166.467 234.872 160.814 237.032C158.515 237.911 153.92 240.181 150.603 242.078C142.172 246.901 131.626 251.816 123.304 254.803C119.412 256.2 115.102 258.192 113.726 259.23C111.292 261.068 111.235 261.184 111.583 263.638C111.913 265.97 112.04 266.092 113.271 265.263C120.646 260.298 136.68 251.141 143.539 247.975C155.062 242.658 161.897 239.962 160.8 241.168C158.561 243.63 138.152 255.408 125.949 261.282L112.517 267.746L112.954 270.02C113.194 271.271 113.706 272.454 114.091 272.65C114.477 272.846 117.558 271.681 120.939 270.063C124.555 268.331 130.377 266.497 135.078 265.606C143.518 264.007 148.728 262.382 157.857 258.502C160.929 257.196 164.259 255.986 165.258 255.813C167.036 255.505 167.019 255.539 164.408 257.48C162.941 258.57 160.457 260.083 158.886 260.842C155.091 262.677 156.375 263.234 164.262 263.174C167.622 263.149 170.453 263.353 170.552 263.629C170.652 263.905 169.226 264.701 167.384 265.398C163.994 266.68 159.873 267.443 148.442 268.903C143.161 269.577 140.009 270.752 128.929 276.17L115.715 282.634L117.134 287.739L122.715 284.592C133.901 278.286 155.777 270.073 156.445 271.927C156.566 272.262 153.422 273.908 149.457 275.585C145.493 277.261 138.398 280.422 133.692 282.607C128.985 284.793 123.625 287.126 121.781 287.791C119.545 288.597 118.365 289.473 118.239 290.418C118.069 291.698 121.016 299.77 128.396 318.243C131.474 325.947 131.7 328.954 129.271 329.83C127.753 330.378 127.612 330.214 127.41 327.68ZM112.934 288.42C113.033 288.209 112.608 286.108 111.989 283.752L110.864 279.469L106.873 278.149C100.262 275.962 100.124 276.522 105.824 282.404C111.138 287.889 112.602 289.127 112.934 288.42ZM116.565 278.91C116.733 278.553 119.362 276.952 122.407 275.353C133.21 269.679 132.985 268.589 121.778 272.309C114.392 274.76 114.212 274.874 114.584 276.887C114.974 279.003 116.02 280.07 116.565 278.91ZM104.405 241.942C104.47 241.396 103.993 240.564 103.346 240.092C102.329 239.349 102.224 239.44 102.569 240.774C103.041 242.597 104.237 243.358 104.405 241.942ZM122.171 232.31C125.762 230.089 128.356 228.24 127.934 228.202C127.118 228.128 116.912 232.86 111.56 235.795C108.176 237.651 106.688 239.739 107.382 241.662C107.695 242.53 108.773 242.013 111.72 239.583C113.876 237.804 118.58 234.53 122.171 232.31ZM103.522 231.379L103.329 225.957L95.273 221.707C87.3367 217.52 85.3495 216.762 87.532 218.757C89.0221 220.118 93.2145 225.308 97.2747 230.817C99.1037 233.299 101.301 235.66 102.158 236.065C103.705 236.796 103.714 236.765 103.522 231.379ZM113.155 222.595C116.618 219.959 121.611 216.445 124.251 214.784C126.891 213.124 128.989 211.593 128.913 211.382C128.801 211.072 122.962 213.595 116.969 216.543C116.37 216.838 113.665 217.933 110.959 218.977L106.039 220.874L106.056 223.946C106.066 225.635 106.25 227.1 106.466 227.201C106.681 227.303 109.691 225.23 113.155 222.595ZM102.911 222.171C102.521 221.65 100.275 220.108 97.9204 218.746L93.6389 216.268L97.8765 219.731C101.877 223.001 104.474 224.259 102.911 222.171ZM85.7188 209.945C77.2825 203.456 76.643 203.05 76.5175 204.112C76.3935 205.164 82.6791 209.761 87.5873 212.209C90.1767 213.5 89.8922 213.155 85.7188 209.945ZM102.787 213.782C102.658 209.223 102.41 208.569 100.256 207.105C98.944 206.213 95.607 203.879 92.8418 201.919C90.0767 199.958 85.8072 197.009 83.354 195.365C79.2343 192.606 68.3243 183.8 67.001 182.168C66.6866 181.779 67.0492 182.949 67.8075 184.768C69.6102 189.092 71.3013 190.933 79.2547 197.234C91.9246 207.269 95.2594 210.208 98.5641 214.254C100.392 216.493 102.123 218.44 102.408 218.581C102.695 218.722 102.865 216.562 102.787 213.782ZM102.684 201.245C102.894 196.642 102.835 196.565 96.3081 192.76C94.1379 191.494 85.4256 185.473 83.8367 184.442C81.2346 182.753 87.2075 187.509 92.8561 194.757C98.7441 202.311 101.677 205.681 102.247 205.546C102.381 205.515 102.578 203.579 102.684 201.245ZM108.245 207.474C108.518 206.891 112.053 203.769 116.097 200.536C120.142 197.303 123.373 194.439 123.277 194.172C123.181 193.905 122.936 193.765 122.732 193.862C121.143 194.616 110.86 200.066 108.797 201.248C106.356 202.645 106.218 202.872 106.311 205.316C106.417 208.085 107.427 209.213 108.245 207.474ZM115.925 193.409C120.725 189.841 124.602 186.782 124.54 186.611C124.453 186.37 110.005 191.305 107.287 192.503C106.604 192.805 106.119 199.39 106.758 199.69C107 199.804 111.126 196.978 115.925 193.409ZM77.0541 183.712C77.1222 183.567 70.9938 179.547 70.135 178.924C69.2762 178.3 64.9147 173.896 64.7618 174.221C64.6092 174.545 68.7899 179.334 69.7335 179.778C70.6771 180.221 76.9864 183.856 77.0541 183.712ZM115.506 155.89C118.2 154.308 128.064 151.4 127.971 151.142C127.775 150.6 113.388 153.02 111.577 153.87C110.339 154.451 109.185 158.105 110.105 158.532C110.381 158.66 112.812 157.471 115.506 155.89ZM119.591 147.43C123.32 145.693 133.584 142.208 133.516 142.018C133.319 141.475 112.669 146.356 112.361 147.011C111.883 148.029 111.879 150.152 112.354 150.375C112.606 150.493 115.862 149.168 119.591 147.43ZM109.557 144.063C109.728 143.699 109.345 142.71 108.705 141.865C107.548 140.337 107.545 140.34 108.157 142.416C108.841 144.734 109.099 145.038 109.557 144.063ZM118.49 111.577C119.098 109.357 118.583 106.919 115.95 99.5474C114.134 94.4621 112.477 90.3624 112.269 90.4381C111.474 90.7247 116.163 113.625 117.108 114.069C117.449 114.229 118.071 113.107 118.49 111.577ZM120.2 95.5644C119.243 92.2082 116.922 78.3802 116.795 78.6512C116.534 79.2058 119.893 104.486 120.253 104.656C122.028 105.49 120.246 95.727 120.2 95.5644ZM155.497 40.9567C155.529 40.3952 152.31 44.172 151.867 45.1156C151.424 46.0592 150.282 49.1748 150.694 48.7927C151.788 48.8488 155.466 41.5178 155.497 40.9567Z" fill="#1E6147"/>
</svg>
